<?xml version="1.0" encoding="UTF-8" standalone="no"?>
<svg
   id="Camada_1"
   data-name="Camada 1"
   viewBox="0 0 370 80"
   version="1.1"
   sodipodi:docname="title-darkmode.svg"
   inkscape:version="1.3.1 (91b66b0783, 2023-11-16)"
   xml:space="preserve"
   xmlns:inkscape="http://www.inkscape.org/namespaces/inkscape"
   xmlns:sodipodi="http://sodipodi.sourceforge.net/DTD/sodipodi-0.dtd"
   xmlns="http://www.w3.org/2000/svg"
   xmlns:svg="http://www.w3.org/2000/svg"><sodipodi:namedview
     id="namedview1"
     pagecolor="#ffffff"
     bordercolor="#000000"
     borderopacity="0.25"
     inkscape:showpageshadow="2"
     inkscape:pageopacity="0.0"
     inkscape:pagecheckerboard="0"
     inkscape:deskcolor="#d1d1d1"
     showgrid="false"
     inkscape:zoom="1"
     inkscape:cx="116.5"
     inkscape:cy="77.499998"
     inkscape:window-width="1920"
     inkscape:window-height="1009"
     inkscape:window-x="-8"
     inkscape:window-y="-8"
     inkscape:window-maximized="1"
     inkscape:current-layer="Camada_1" /><defs
     id="defs1"><style
       id="style1">.cls-1{fill:#111;fill-rule:evenodd;}</style></defs><path
     style="fill:#ffffff;stroke-width:0.238385;fill-opacity:1"
     d="m 78.784991,79.804499 c -0.0664,-0.107523 -0.29756,-1.23235 -0.51358,-2.49961 l -0.39275,-2.304112 0.79078,-1.016552 c 0.43492,-0.559104 1.517879,-1.895157 2.406569,-2.969012 0.8887,-1.073853 1.61581,-2.066126 1.61581,-2.205051 0,-0.138924 -0.2169,-0.252589 -0.482,-0.252589 -0.73549,0 -3.384599,-1.28992 -3.976319,-1.936172 -0.77024,-0.841221 -1.16273,-1.949119 -1.63648,-4.619389 -1.049152,-5.913515 -0.65062,-7.335721 5.504959,-19.645094 3.38804,-6.775107 4.4117,-9.412998 3.86496,-9.959732 -0.30796,-0.307966 -0.85673,-0.415057 -1.79411,-0.350124 -0.65642,0.04547 -2.4826,1.863356 -2.91112,2.897907 -0.16907,0.408183 -0.38805,0.655725 -0.48661,0.550097 -0.0986,-0.105628 -0.36069,-1.290499 -0.5825,-2.633046 l -0.403289,-2.440991 0.535659,-0.896383 c 0.29461,-0.493008 0.80684,-1.191381 1.13828,-1.551936 0.70618,-0.768214 0.46996,-0.833376 -1.30252,-0.359312 -0.704039,0.188301 -1.178009,0.470596 -1.300799,0.774747 -0.10626,0.263178 -0.5757,2.999413 -1.0432,6.080525 -0.76248,5.025128 -1.05026,6.853667 -1.44441,9.177782 -0.0667,0.393333 -0.22338,1.412424 -0.34816,2.264647 -1.664647,11.369518 -3.689536,17.621999 -7.637945,23.584587 -2.783696,4.203725 -7.108991,8.094203 -10.316477,9.279378 -2.986474,1.103508 -5.716778,0.312251 -6.908347,-2.002077 -0.957939,-1.860552 -1.65355,-7.718631 -1.140808,-9.607281 0.331213,-1.220002 1.845497,-2.845435 3.386914,-3.635512 2.598592,-1.331954 3.505816,-1.478619 9.617648,-1.554836 l 5.721214,-0.07134 0.834344,-1.50081 c 1.839325,-3.30857 3.677446,-9.066673 4.51207,-14.13453 0.129557,-0.786666 0.349885,-2.073939 0.489621,-2.860606 0.139736,-0.786666 0.351368,-2.127576 0.470293,-2.979799 0.118926,-0.852222 0.384919,-2.568587 0.591097,-3.814142 0.206176,-1.245556 0.482976,-2.961921 0.615116,-3.814143 0.13213,-0.852222 0.33683,-2.139496 0.45489,-2.860607 0.11806,-0.721111 0.17322,-1.353093 0.12257,-1.404403 -0.14628,-0.14822 -3.278512,0.63509 -13.334447,3.334686 -5.273352,1.415671 -7.314223,1.919968 -7.404082,1.829537 -0.117972,-0.118725 -0.820162,-4.042297 -0.820162,-4.582755 0,-0.575561 -0.165389,-0.511612 5.244445,-2.027822 2.194925,-0.615169 6.380668,-1.707398 14.303036,-3.732239 1.24556,-0.318346 2.4329,-0.63118 2.63855,-0.695189 0.24755,-0.07706 0.47371,-0.659351 0.66924,-1.723137 0.16244,-0.883719 0.34487,-1.848125 0.40539,-2.143125 0.0605,-0.295 0.0762,-0.536363 0.0348,-0.536363 -0.065,0 -1.09073,0.227079 -5.416615,1.199187 -2.151295,0.483436 -6.336094,1.493959 -8.812948,2.128102 -1.503786,0.385011 -2.766295,0.667883 -2.805575,0.628603 -0.204792,-0.204793 -0.985788,-5.031252 -0.835203,-5.161462 0.09732,-0.08416 2.912411,-0.817308 6.255745,-1.629221 3.343334,-0.811913 6.66879,-1.624928 7.389902,-1.806699 0.721112,-0.181772 1.954744,-0.449656 2.741414,-0.595301 0.78667,-0.145643 1.65954,-0.313221 1.93972,-0.372394 0.36161,-0.07637 0.55531,-0.352237 0.6676,-0.950776 0.16027,-0.854291 0.610859,-0.938962 0.610859,-0.114789 0,0.697827 0.31803,0.751675 2.19051,0.370912 8.16119,-1.659558 17.74854,-2.7816688 26.82532,-3.1396571 l 4.10471,-0.1618912 0.20625,0.5713797 c 0.11344,0.3142571 0.34246,1.3759226 0.50894,2.3592566 0.43453,2.566661 0.37325,2.455772 1.14283,2.068228 1.77045,-0.891569 3.97857,-0.613773 5.50469,0.69253 1.11764,0.956658 1.55054,1.95082 2.08176,4.780797 0.7663,4.082281 0.84298,5.564443 0.46701,9.026126 -0.27357,2.518769 -1.58701,9.130647 -1.92121,9.671401 -0.0616,0.09967 -0.36805,1.12892 -0.68101,2.287231 -0.9151,3.386982 -1.66341,5.78648 -4.0839,13.095325 -1.25489,3.789218 -2.3029,7.264941 -2.32891,7.72383 -0.0434,0.765301 0.0119,0.840013 0.66787,0.902834 1.14838,0.109976 6.55556,-3.385053 6.55556,-4.237312 0,-1.154464 0.56698,-5.733851 1.09241,-8.823101 1.1021,-6.479815 4.7885,-25.507849 4.97859,-25.697945 0.21365,-0.213646 0.84213,3.187857 0.84213,4.557805 0,0.518101 -0.25988,2.241581 -0.57751,3.829957 -0.31763,1.588375 -1.06076,5.408866 -1.65139,8.489979 -0.59063,3.081111 -1.14124,5.92384 -1.22357,6.317172 -0.0823,0.393334 -0.2972,1.573335 -0.47749,2.622224 -0.18028,1.048889 -0.57662,3.247981 -0.88074,4.88687 -0.59824,3.223933 -0.73321,7.185794 -0.26088,7.658119 0.31421,0.314214 1.95166,-2.903769 4.32134,-8.492463 1.35066,-3.185421 1.81434,-4.428948 4.08887,-10.965659 3.12634,-8.984719 5.44203,-13.052335 8.95898,-15.736886 2.37083,-1.809696 4.02314,-0.715516 5.40505,3.579306 1.02271,3.178471 1.60644,6.592438 1.60644,9.395434 0,2.933666 -1.35276,5.14065 -3.37794,5.510979 -1.12744,0.206166 -2.60444,-0.351031 -3.0279,-1.142274 -0.28314,-0.529074 -1.07798,-4.810293 -0.92201,-4.966261 0.0639,-0.06393 0.51008,0.116139 0.99146,0.400154 0.65605,0.387078 1.11355,0.484419 1.827,0.388727 1.32209,-0.177329 2.02771,-0.707664 2.69082,-2.022356 0.8598,-1.704669 0.99055,-2.920977 0.44626,-4.151403 -0.53801,-1.216268 -1.99676,-2.578656 -2.76104,-2.578656 -1.20082,0 -3.44492,1.909972 -5.32166,4.529294 -2.35138,3.281755 -3.3879,5.721362 -7.59619,17.878793 -0.43115,1.245556 -1.3301,3.52804 -1.99767,5.072183 -0.66757,1.544142 -1.21377,2.863382 -1.21377,2.931641 0,0.377861 -3.26139,6.554846 -3.85987,7.310492 -0.68797,0.868631 -1.22069,1.115432 -1.4849,0.687931 -0.0707,-0.114321 -0.27725,-1.137012 -0.4591,-2.272642 -0.35649,-2.226211 -0.48559,-2.513835 -0.96935,-2.159553 -1.19345,0.874034 -3.2521,2.145691 -3.94023,2.433933 -0.72324,0.30295 -0.91274,0.299725 -1.59832,-0.02721 -1.05022,-0.500814 -1.44961,-1.374097 -2.00099,-4.375187 -0.81382,-4.429535 -0.66475,-5.335672 2.4032,-14.607653 0.88934,-2.687778 2.0577,-6.335052 2.59636,-8.105052 0.53865,-1.770001 1.08941,-3.540001 1.22391,-3.933335 0.64099,-1.874531 1.74487,-6.331911 2.24339,-9.058589 0.68874,-3.767139 0.76847,-4.368781 0.74432,-5.616374 -0.0223,-1.154358 -0.0804,-1.263911 -1.03954,-1.95987 -0.7977,-0.578857 -1.32531,-0.759548 -2.45685,-0.841396 -1.29769,-0.09387 -1.62333,-0.01411 -3.27473,0.802054 -1.41911,0.701365 -2.32252,1.395308 -3.99541,3.069018 -2.59421,2.595474 -4.00708,4.590271 -5.82798,8.228391 -1.45308,2.90323 -1.40098,2.88625 -1.86873,0.609088 -0.61888,-3.012892 -0.6523,-2.791493 0.89358,-5.918819 0.78881,-1.595762 1.96098,-3.629514 2.60483,-4.519452 1.59928,-2.210546 4.33822,-5.03107 5.82298,-5.996406 0.36055,-0.234421 0.65555,-0.511101 0.65555,-0.614846 0,-0.434343 -10.55011,0.217575 -17.99798,1.112139 -4.18753,0.502965 -15.04495,2.295469 -15.26831,2.520721 -0.10347,0.104351 -0.770989,4.110275 -0.698809,4.193739 0.0352,0.04072 1.764949,-0.250729 3.843849,-0.647678 2.07891,-0.396951 5.76437,-0.990919 8.18993,-1.319931 2.42556,-0.329012 5.25217,-0.71519 6.28136,-0.858171 1.02919,-0.142983 1.93124,-0.19998 2.00456,-0.126661 0.25668,0.256674 1.02009,4.752576 0.83768,4.933295 -0.10131,0.100376 -3.23628,0.623493 -6.9666,1.162482 -6.81411,0.98456 -9.07013,1.377482 -9.07013,1.579701 0,0.06001 0.21845,0.404561 0.48544,0.765692 0.63374,0.857168 1.09566,2.642649 1.52554,5.896719 0.61814,4.679116 0.39258,5.474982 -4.12607,14.558088 -3.794379,7.627253 -5.281209,11.066464 -5.456629,12.621915 -0.10616,0.941292 -0.0742,0.995189 0.92988,1.566166 0.5719,0.325228 1.52254,0.728286 2.112539,0.895685 1.68621,0.478419 1.75198,0.550759 2.09622,2.305843 0.17772,0.90605 0.37191,1.893118 0.43155,2.193482 0.0596,0.30036 0.20922,0.483821 0.33241,0.407688 0.12319,-0.07613 1.25445,-1.337474 2.51393,-2.80298 1.91535,-2.228682 2.26829,-2.763318 2.15756,-3.268296 -0.0728,-0.332059 -0.41488,-2.159198 -0.76015,-4.060309 -0.84003,-4.625294 -0.72778,-7.933579 0.38172,-11.251106 2.70304,-8.082306 9.87564,-12.463209 15.49853,-9.466239 1.51938,0.809824 3.37052,2.645778 4.00371,3.970875 0.20361,0.426111 0.43236,0.774748 0.50832,0.774748 0.076,0 0.79556,-0.670455 1.5991,-1.4899 3.22718,-3.291052 5.81556,-5.72829 5.94551,-5.598337 0.17478,0.174777 0.49688,1.545272 0.81338,3.460787 l 0.24747,1.497802 -3.6953,3.627452 -3.69531,3.62745 0.22773,1.072727 c 0.74731,3.520256 0.75004,7.267994 0.007,10.131316 -1.5155,5.842905 -5.9646,10.67581 -10.62844,11.545293 -2.44854,0.456485 -5.08617,-0.316834 -7.02439,-2.05946 C 90.31515,66.602159 90.2775,66.587458 89.86088,67.03096 88.79211,68.168698 83.30413,74.671592 81.27979,77.198991 80.04613,78.739546 79.007131,80 78.971161,80 c -0.036,0 -0.11978,-0.08798 -0.18623,-0.1955 z M 58.012295,73.090106 c 0.839298,-0.400559 2.09599,-1.1696 2.792656,-1.708979 1.429763,-1.106969 4.236506,-3.802936 4.242513,-4.075071 0.0055,-0.248902 -2.78193,-0.216061 -5.441875,0.06412 -3.644142,0.383849 -6.898478,1.988677 -8.0633,3.976295 -0.703499,1.200432 -0.610041,1.418632 0.948816,2.215178 1.373465,0.701818 3.430804,0.52611 5.52119,-0.47154 z M 98.84474,64.064462 c 3.23037,-1.005405 6.00372,-3.640058 8.01993,-7.618847 1.21032,-2.388461 2.35603,-7.789302 1.82731,-8.613926 -0.178,-0.277616 -0.44256,-0.140328 -1.36997,0.710911 -3.22631,2.961306 -14.20108,14.549261 -14.33549,15.136442 -0.18912,0.826194 3.63387,1.077714 5.85822,0.38542 z m -4.90797,-7.965238 c 2.44805,-2.653468 6.11356,-6.540852 8.14557,-8.63863 3.33253,-3.440392 3.66016,-3.852384 3.34346,-4.204415 -0.49662,-0.552028 -2.87957,-1.574244 -4.07734,-1.749061 -1.46055,-0.21317 -3.77927,0.276499 -5.42633,1.145933 -1.84018,0.971376 -4.30521,3.429408 -5.55159,5.535812 -1.31058,2.214921 -2.45505,5.710959 -2.6101,7.973187 -0.11443,1.669405 -0.0691,1.907253 0.62562,3.283505 0.41194,0.816052 0.8279,1.482476 0.92434,1.480943 0.0964,-0.0014 2.17831,-2.173805 4.62637,-4.827274 z m 117.60155,18.966577 c -2.14403,-0.285061 -2.95049,-0.772884 -4.47787,-2.708666 -4.46264,-5.655849 -4.82832,-6.420032 -5.52543,-11.547043 -1.01536,-7.467611 -1.39706,-14.091549 -1.41831,-24.61305 -0.0135,-6.69424 -0.10441,-10.31306 -0.25921,-10.318695 -0.13111,-0.0048 -0.82838,-0.05658 -1.54949,-0.115125 -0.72111,-0.05854 -2.79842,-0.224269 -4.61623,-0.368275 -2.26937,-0.179774 -4.08663,-0.481265 -5.79887,-0.962052 -4.17171,-1.171398 -4.68111,-1.554799 -8.0584,-6.065247 -2.59466,-3.46521 -3.4008,-4.806654 -4.06066,-6.757018 -0.84575,-2.4998338 -1.57453,-6.3069489 -1.495,-7.8098785 l 0.0715,-1.3528835 1.21548,1.6477716 c 2.84045,3.8506629 2.86806,3.9035485 3.04204,5.8233949 0.19282,2.1278835 1.22341,6.8336635 1.59453,7.2808425 0.37932,0.457039 3.5921,1.466819 5.94795,1.869442 2.5057,0.428233 9.98533,0.920751 12.39596,0.816248 l 1.78788,-0.07751 0.12905,-1.122304 c 0.16444,-1.430193 0.31617,-1.565552 0.86066,-0.767732 0.24233,0.355081 0.70878,0.928459 1.03656,1.274176 l 0.59596,0.628575 3.08029,-0.224862 3.0803,-0.224861 0.80814,0.933655 c 0.44448,0.513511 1.06583,1.309112 1.38076,1.768 0.31494,0.45889 0.89832,1.294053 1.29641,1.855919 0.39809,0.561866 0.7238,1.106199 0.7238,1.209631 0,0.10343 -1.90052,0.319542 -4.22337,0.480246 -2.32286,0.160706 -4.27527,0.344085 -4.3387,0.407512 -0.21125,0.211251 -0.22553,24.963055 -0.0161,27.990135 0.43289,6.258301 1.36036,14.545569 1.6635,14.863897 0.3388,0.355771 5.02654,0.467483 6.55712,0.156259 2.35032,-0.477908 2.20469,-0.543191 3.984,1.785913 1.7417,2.279903 2.44766,3.421552 2.24255,3.626651 -0.56877,0.568773 -5.20778,0.94255 -7.65685,0.61693 z m 54.75833,-4.150254 c -1.30987,-1.530661 -1.73627,-2.228401 -2.04884,-3.352632 l -0.3947,-1.419698 -1.42195,1.286788 c -2.45629,2.222815 -4.7962,3.230235 -6.46801,2.784733 -1.33847,-0.356672 -5.23777,-4.575238 -6.06997,-6.566963 -0.81543,-1.951641 -0.64708,-6.392867 0.38771,-10.227584 1.88177,-6.973441 5.81071,-14.325494 10.06268,-18.829876 0.49379,-0.523096 0.90023,-1.166733 0.9032,-1.430302 0.0323,-2.859291 1.17878,-13.232759 1.46253,-13.232759 0.096,0 0.93131,0.858862 1.8563,1.908583 1.89639,2.152068 1.82774,1.847107 1.34109,5.958085 -0.17849,1.507777 -0.28381,2.808884 -0.23404,2.891346 0.0497,0.08246 0.54808,0.101456 1.10737,0.04221 0.82051,-0.08692 1.20106,0.01642 1.97044,0.535033 1.2659,0.853307 4.13089,4.096578 4.92626,5.576685 2.40748,4.480075 -0.31172,15.187939 -6.22015,24.494256 -1.20455,1.897278 -1.21348,1.925541 -0.97315,3.079584 0.35548,1.70695 1.40459,6.506186 1.64859,7.541504 0.11587,0.491667 0.12249,0.89394 0.0147,0.89394 -0.10778,0 -0.9403,-0.869822 -1.85007,-1.932936 z m -10.58774,-5.596075 c 1.41493,-0.705091 4.2758,-3.286677 5.72757,-5.168443 l 0.98771,-1.280251 -0.34161,-2.129334 c -0.40716,-2.537929 -1.07959,-10.033488 -1.07959,-12.034191 0,-0.780107 -0.0886,-1.418377 -0.19684,-1.418377 -0.32892,0 -3.0687,4.782085 -4.1789,7.293939 -1.3571,3.070492 -2.22646,5.625043 -2.7809,8.171536 -0.49205,2.259908 -0.85857,6.211708 -0.6311,6.804481 0.20984,0.546811 1.08449,0.462857 2.49366,-0.23936 z m 10.6525,-12.961661 c 2.17642,-4.321794 3.71586,-9.200221 4.21677,-13.362761 0.26436,-2.196849 0.14584,-4.049611 -0.25906,-4.049611 -0.98344,0 -4.07619,1.834624 -5.02551,2.98114 -0.30096,0.363484 -0.35601,1.600067 -0.34915,7.843373 0.008,6.740161 0.0911,8.246199 0.45815,8.246199 0.068,0 0.49948,-0.746253 0.9588,-1.65834 z m -79.86262,20.016228 c -0.66062,-0.097 -1.52814,-0.345466 -1.92783,-0.552152 -1.00388,-0.519128 -5.10739,-5.684784 -6.38048,-8.031996 -0.6759,-1.246151 -1.04634,-2.860606 -0.65639,-2.860606 0.24504,0 1.56669,1.670756 3.3719,4.262575 1.02683,1.474271 1.65362,1.644006 4.50493,1.219943 3.67305,-0.546277 5.86152,-1.55782 7.7589,-3.586265 1.77497,-1.897598 2.8748,-4.963405 2.42438,-6.758048 -0.24917,-0.992719 -4.15544,-2.8805 -10.44383,-5.047172 -9.05922,-3.121358 -10.41539,-4.099204 -15.77066,-11.371176 -2.13724,-2.902191 -2.63947,-3.944293 -2.73757,-5.680229 -0.0759,-1.343339 0.01,-1.829361 0.51989,-2.94323 0.80532,-1.759028 2.6126,-3.484053 4.75008,-4.533869 2.19565,-1.078377 4.01614,-1.412508 6.72924,-1.235068 5.79474,0.378988 10.15476,2.815483 14.31496,7.999587 5.43697,6.775103 6.55665,9.391874 4.85024,11.33536 -0.67293,0.766429 -0.85463,0.842637 -2.00894,0.842637 -2.50683,0 -5.78844,-2.242325 -8.35291,-5.707532 -0.83033,-1.121968 -1.89031,-2.539554 -2.35551,-3.150189 -0.4652,-0.610637 -0.84583,-1.164553 -0.84583,-1.230926 0,-0.06637 0.6071,0.462648 1.34912,1.175603 2.56606,2.465575 6.21855,3.7186 7.5031,2.574018 0.74156,-0.660742 1.17895,-1.849609 1.00341,-2.727323 -0.17195,-0.85972 -1.41089,-1.871305 -3.89603,-3.181077 -2.2401,-1.180623 -4.56179,-1.822257 -7.15151,-1.976414 -4.00998,-0.238706 -6.84494,0.686393 -9.42579,3.075802 -1.63225,1.51118 -2.39218,2.855101 -2.62796,4.647505 -0.15432,1.173016 -0.12195,1.286272 0.54605,1.910278 1.08487,1.013414 4.30013,2.495717 8.62735,3.977389 3.99729,1.368701 8.09397,3.055179 9.71955,4.001242 2.70899,1.576589 4.17074,3.075018 7.39183,7.577284 2.36702,3.308514 2.56846,3.812598 2.57198,6.436367 0.003,2.010393 -0.0732,2.419896 -0.67596,3.647459 -1.3361,2.720985 -4.10367,4.732575 -7.56918,5.501607 -2.13714,0.474256 -3.71177,0.593993 -5.11053,0.388616 z m 39.31307,-0.538688 c -0.39545,-0.426111 -0.89653,-1.04293 -1.11351,-1.370707 -0.21699,-0.327779 -0.93047,-1.335485 -1.5855,-2.239348 l -1.19096,-1.643388 -1.6859,-0.08529 c -2.83545,-0.143457 -3.30936,-0.526361 -7.17596,-5.797943 -1.67664,-2.285867 -2.79754,-4.362716 -3.28718,-6.090623 -0.50207,-1.77175 -1.173,-7.133586 -1.31198,-10.484827 -0.0762,-1.835556 -0.2026,-4.89283 -0.28108,-6.793942 -0.0904,-2.189634 -0.0596,-3.369192 0.0842,-3.218183 0.38927,0.40918 2.54567,3.280594 3.40146,4.529294 l 0.81687,1.19192 0.28991,6.913134 c 0.2841,6.77462 0.96733,13.023774 1.47996,13.536402 0.36621,0.366207 5.11768,0.241587 6.07737,-0.159396 l 0.81053,-0.33866 -0.22016,-1.155535 c -0.47872,-2.512655 -1.12595,-7.986913 -1.28514,-10.86968 -0.17821,-3.226707 -0.0269,-3.682905 0.78693,-2.374334 0.22751,0.365781 1.03674,1.487828 1.79826,2.493433 1.60913,2.124873 1.83289,2.756753 1.83555,5.18337 0.003,2.768655 0.38042,5.766499 2.12341,16.867238 0.2316,1.474999 0.40556,2.681818 0.38655,2.681818 -0.019,0 -0.3581,-0.348636 -0.75353,-0.774747 z m 13.66525,-0.953536 c -4.21356,-5.216178 -5.98606,-9.822211 -6.65006,-17.280935 -0.2541,-2.854312 -0.32812,-3.170955 -0.77275,-3.305613 -0.74068,-0.224316 -3.01522,-1.638593 -3.86037,-2.400316 -1.25938,-1.135077 -4.23989,-4.907529 -6.73672,-8.526718 -2.63151,-3.814384 -4.05499,-9.847838 -3.40606,-14.436578 0.48889,-3.45704 1.70244,-4.903565 4.07727,-4.859989 3.77575,0.06929 9.22991,4.488914 13.56688,10.993576 0.30633,0.459445 0.64054,0.742714 0.74267,0.629492 0.10215,-0.113224 0.48471,-1.010407 0.85014,-1.993742 1.60548,-4.320182 3.90067,-9.607072 6.90655,-15.908952 1.16214,-2.436476 1.44773,-2.870246 1.73354,-2.633045 0.41417,0.343723 2.04632,2.464048 3.22218,4.18589 l 0.85911,1.258041 -0.90971,1.960143 c -0.50034,1.078079 -1.33909,2.871963 -1.86387,3.986407 -5.46146,11.598142 -8.86669,21.554279 -9.84102,28.772974 -0.41975,3.109765 -0.1745,9.741615 0.47175,12.757281 0.46624,2.175632 1.34407,4.880188 2.24649,6.921276 0.21738,0.491667 0.34734,0.89394 0.2888,0.89394 -0.0585,0 -0.47471,-0.455909 -0.92482,-1.013132 z m -6.02864,-28.367688 c 0.24122,-1.212777 0.9207,-3.902182 1.50999,-5.976453 l 1.07142,-3.771406 -0.44006,-0.975879 c -0.77391,-1.716238 -5.01951,-4.794929 -7.69412,-5.579382 -3.47628,-1.019585 -5.21614,0.852494 -5.45387,5.868366 -0.14398,3.037518 0.21991,5.852985 1.06074,8.207024 0.69562,1.947513 1.00102,2.350294 2.40668,3.174065 1.55605,0.911904 2.83344,1.225274 5.06588,1.242771 l 2.03479,0.01594 z m 11.1935,23.599071 c -1.11914,-1.273201 -3.27074,-4.360292 -3.67337,-5.270491 -1.02611,-2.319689 -0.60519,-8.977027 0.98807,-15.627662 0.53697,-2.24142 2.55209,-7.885767 2.81535,-7.885767 0.2309,0 1.20829,1.259268 3.31365,4.269315 l 1.02814,1.469944 -0.84465,2.196028 c -1.63025,4.238528 -2.25807,6.745577 -2.98385,11.915205 -0.53034,3.777448 -0.63401,7.192364 -0.25812,8.50298 0.29246,1.019764 0.21191,1.109775 -0.38522,0.430448 z M 153.34795,51.957335 c -2.18343,-2.355558 -3.90864,-4.32593 -3.90864,-4.464094 0,-0.08351 1.20683,-0.163482 2.68182,-0.177711 1.47501,-0.01423 4.17397,-0.09469 5.99771,-0.178788 l 3.31589,-0.152916 1.85214,2.026263 c 2.35804,2.579712 2.93351,3.322653 2.73072,3.525438 -0.0896,0.08962 -2.78489,0.203418 -5.98946,0.252871 l -5.82649,0.08991 z M 249.18923,35.02139 c -0.74025,-0.762883 -1.54396,-1.663965 -1.78601,-2.002401 l -0.44008,-0.61534 0.96984,-1.172539 c 0.53341,-0.644898 1.17743,-1.435963 1.43117,-1.757924 l 0.46133,-0.585383 1.76836,1.777302 c 1.02643,1.031631 1.77097,1.982294 1.7746,2.265896 0.007,0.50398 -2.03487,3.217165 -2.54584,3.383741 -0.1581,0.05154 -0.89311,-0.530466 -1.63337,-1.293352 z m 3.85405,-6.053838 c -1.54234,-1.639523 -1.77481,-1.993428 -1.56587,-2.383839 0.13496,-0.252163 0.37689,-0.45848 0.53761,-0.45848 0.28248,0 3.18221,3.016027 3.58356,3.727281 0.19459,0.344851 -0.17953,1.040398 -0.55963,1.040398 -0.10143,0 -0.99948,-0.866411 -1.99567,-1.92536 z m 25.10656,-9.448872 c -0.73034,-0.758619 -1.82989,-1.95409 -2.44343,-2.656605 l -1.11554,-1.277297 v -3.615825 c 0,-1.9887042 0.1196,-4.5248324 0.26579,-5.6358372 0.14619,-1.111005 0.27134,-2.1540991 0.27811,-2.317988 0.0237,-0.5728222 0.39113,-0.2817793 2.42314,1.9192909 2.82842,3.0637529 2.73295,2.8872392 2.47551,4.5766713 -0.11988,0.786666 -0.29394,3.445536 -0.38683,5.9086 l -0.16886,4.478296 z m -7.97245,-3.49486 c -2.64329,-2.86322 -2.88089,-3.237356 -3.34699,-5.270299 -0.49831,-2.1734819 -0.80344,-11.01490755 -0.3709,-10.74758622 0.15764,0.09742751 1.30077,1.32092582 2.54031,2.71889012 l 2.25369,2.5417517 0.006,1.9071047 c 0.009,3.3811077 0.4368,8.5487667 0.80813,9.7626507 0.19866,0.649437 0.32399,1.218001 0.27852,1.263475 -0.0455,0.04548 -1.02101,-0.933721 -2.16785,-2.175987 z"
     id="path1" /></svg>
