<?xml version="1.0" encoding="UTF-8" standalone="no"?>
<svg
   id="icons"
   viewBox="0 0 546 78"
   version="1.1"
   sodipodi:docname="top-stars.svg"
   xml:space="preserve"
   inkscape:version="1.3.1 (91b66b0783, 2023-11-16)"
   xmlns:inkscape="http://www.inkscape.org/namespaces/inkscape"
   xmlns:sodipodi="http://sodipodi.sourceforge.net/DTD/sodipodi-0.dtd"
   xmlns="http://www.w3.org/2000/svg"
   xmlns:svg="http://www.w3.org/2000/svg"><sodipodi:namedview
     id="namedview92"
     pagecolor="#ffffff"
     bordercolor="#000000"
     borderopacity="0.25"
     inkscape:showpageshadow="2"
     inkscape:pageopacity="0.0"
     inkscape:pagecheckerboard="0"
     inkscape:deskcolor="#d1d1d1"
     inkscape:zoom="1.6680468"
     inkscape:cx="352.80785"
     inkscape:cy="-0.89925536"
     inkscape:window-width="1920"
     inkscape:window-height="1009"
     inkscape:window-x="-8"
     inkscape:window-y="-8"
     inkscape:window-maximized="1"
     inkscape:current-layer="icons" /><defs
     id="defs1"><style
       id="style1">.cls-1{fill:#efcf19;}.cls-2{fill:#a0aab4;}.cls-3{fill:#cba27a;}.cls-4{fill:#aaa;}.cls-5{fill:#bebebe;}.cls-6{fill:#cca70f;}.cls-7{fill:#78828c;}.cls-8{fill:#90682a;}.cls-9{fill:#828282;}.cls-10{fill:#d2d2d2;}.cls-11{fill:#c48a0c;}</style></defs><title
     id="title1">top-stars</title><polygon
     class="cls-1"
     points="39 0 44.66 10.56 53.92 2.97 55.11 14.89 66.58 11.42 63.11 22.89 75.03 24.07 67.44 33.34 78 39 67.44 44.66 75.03 53.92 63.11 55.11 66.58 66.58 55.11 63.11 53.92 75.03 44.66 67.44 39 78 33.34 67.44 24.07 75.03 22.89 63.11 11.42 66.58 14.89 55.11 2.97 53.92 10.56 44.66 0 39 10.56 33.34 2.97 24.07 14.89 22.89 11.42 11.42 22.89 14.89 24.07 2.97 33.34 10.56 39 0"
     id="polygon1" /><polygon
     class="cls-2"
     points="117 2 122.66 10.56 131.16 4.82 133.11 14.89 143.16 12.84 141.11 22.89 151.18 24.84 145.44 33.34 154 39 145.44 44.66 151.18 53.16 141.11 55.11 143.16 65.16 133.11 63.11 131.16 73.18 122.66 67.44 117 76 111.34 67.44 102.84 73.18 100.89 63.11 90.84 65.16 92.89 55.11 82.82 53.16 88.56 44.66 80 39 88.56 33.34 82.82 24.84 92.89 22.89 90.84 12.84 100.89 14.89 102.84 4.82 111.34 10.56 117 2"
     id="polygon2" /><polygon
     class="cls-3"
     points="195 4 200.66 10.56 208.39 6.66 211.11 14.89 219.75 14.25 219.11 22.89 227.34 25.61 223.44 33.34 230 39 223.44 44.66 227.34 52.39 219.11 55.11 219.75 63.75 211.11 63.11 208.39 71.34 200.66 67.44 195 74 189.34 67.44 181.61 71.34 178.89 63.11 170.25 63.75 170.89 55.11 162.66 52.39 166.56 44.66 160 39 166.56 33.34 162.66 25.61 170.89 22.89 170.25 14.25 178.89 14.89 181.61 6.66 189.34 10.56 195 4"
     id="polygon3" /><polygon
     class="cls-4"
     points="273 6 278.66 10.56 285.63 8.51 289.11 14.89 296.33 15.66 297.11 22.89 303.49 26.37 301.44 33.34 306 39 301.44 44.66 303.49 51.63 297.11 55.11 296.33 62.34 289.11 63.11 285.63 69.49 278.66 67.44 273 72 267.34 67.44 260.37 69.49 256.89 63.11 249.66 62.34 248.89 55.11 242.51 51.63 244.56 44.66 240 39 244.56 33.34 242.51 26.37 248.89 22.89 249.66 15.66 256.89 14.89 260.37 8.51 267.34 10.56 273 6"
     id="polygon4" /><polygon
     class="cls-5"
     points="352.63 8 358.29 10.56 364.49 10.36 368.74 14.89 374.55 17.08 376.74 22.89 381.27 27.14 381.07 33.34 383.63 39 381.07 44.66 381.27 50.86 376.74 55.11 374.55 60.92 368.74 63.11 364.49 67.64 358.29 67.44 352.63 70 346.97 67.44 340.76 67.64 336.52 63.11 330.71 60.92 328.51 55.11 323.99 50.86 324.18 44.66 321.63 39 324.18 33.34 323.99 27.14 328.51 22.89 330.71 17.08 336.52 14.89 340.76 10.36 346.97 10.56 352.63 8"
     id="polygon5" /><path
     class="cls-6"
     d="M72.1,54.67a5.11,5.11,0,0,0-2.58,3.91,5.88,5.88,0,0,0,4.87-.39A5.71,5.71,0,0,0,77,53.91,6.85,6.85,0,0,0,72.1,54.67Z"
     id="path5" /><path
     class="cls-6"
     d="M68,53.05a6.86,6.86,0,0,0-1.2-4.81A5.7,5.7,0,0,0,63.9,52.3a5.85,5.85,0,0,0,1.52,4.64A5.1,5.1,0,0,0,68,53.05Z"
     id="path6" /><path
     class="cls-6"
     d="M63.21,59.16a6.84,6.84,0,0,0-.55-4.93,5.78,5.78,0,0,0-3.45,3.64,5.92,5.92,0,0,0,.91,4.8A5.05,5.05,0,0,0,63.21,59.16Z"
     id="path7" /><path
     class="cls-6"
     d="M57.38,61.88a6.84,6.84,0,0,0-.09-5,5.72,5.72,0,0,0-3.77,3.3A5.88,5.88,0,0,0,54,65.09,5.06,5.06,0,0,0,57.38,61.88Z"
     id="path8" /><path
     class="cls-6"
     d="M50.87,64.52a6.82,6.82,0,0,0,1.34-4.77,5.75,5.75,0,0,0-4.56,2.07,5.86,5.86,0,0,0-1,4.79A5.07,5.07,0,0,0,50.87,64.52Z"
     id="path9" /><path
     class="cls-6"
     d="M74.13,49.4a5.75,5.75,0,0,0-.21-5,6.83,6.83,0,0,0-3.65,3.35,5.06,5.06,0,0,0,0,4.68A5.91,5.91,0,0,0,74.13,49.4Z"
     id="path10" /><path
     class="cls-6"
     d="M69.32,60.15a5.09,5.09,0,0,0-3.61,3,5.87,5.87,0,0,0,4.77,1.07,5.73,5.73,0,0,0,3.75-3.32A6.85,6.85,0,0,0,69.32,60.15Z"
     id="path11" /><path
     class="cls-6"
     d="M60.31,66.54a5.88,5.88,0,0,0,4.41,2.1,5.73,5.73,0,0,0,4.4-2.4,6.78,6.78,0,0,0-4.62-1.79A5.1,5.1,0,0,0,60.31,66.54Z"
     id="path12" /><path
     class="cls-6"
     d="M59.44,67.77a5.07,5.07,0,0,0-4.62.73,5.86,5.86,0,0,0,3.57,3.33,5.68,5.68,0,0,0,4.91-1A6.84,6.84,0,0,0,59.44,67.77Z"
     id="path13" /><path
     class="cls-6"
     d="M52.49,69.27a5.07,5.07,0,0,0-4.67.17A5.86,5.86,0,0,0,51,73.18a5.74,5.74,0,0,0,5-.37A6.81,6.81,0,0,0,52.49,69.27Z"
     id="path14" /><path
     class="cls-6"
     d="M70.33,53.84,69,53.51c-.13.55-3.63,13.48-25.92,13.69l0,1.36C66.5,68.35,70.3,54,70.33,53.84Z"
     id="path15" /><path
     class="cls-6"
     d="M8.48,58.58A5.11,5.11,0,0,0,5.9,54.67,6.85,6.85,0,0,0,1,53.91a5.71,5.71,0,0,0,2.61,4.28A5.88,5.88,0,0,0,8.48,58.58Z"
     id="path16" /><path
     class="cls-6"
     d="M12.58,56.94A5.85,5.85,0,0,0,14.1,52.3a5.71,5.71,0,0,0-2.94-4.06A6.88,6.88,0,0,0,10,53.05,5.1,5.1,0,0,0,12.58,56.94Z"
     id="path17" /><path
     class="cls-6"
     d="M17.88,62.67a5.92,5.92,0,0,0,.91-4.8,5.78,5.78,0,0,0-3.45-3.64,6.84,6.84,0,0,0-.55,4.93A5.05,5.05,0,0,0,17.88,62.67Z"
     id="path18" /><path
     class="cls-6"
     d="M24,65.09a5.89,5.89,0,0,0,.45-4.86,5.72,5.72,0,0,0-3.77-3.3,6.84,6.84,0,0,0-.09,5A5.07,5.07,0,0,0,24,65.09Z"
     id="path19" /><path
     class="cls-6"
     d="M31.31,66.61a5.86,5.86,0,0,0-1-4.79,5.75,5.75,0,0,0-4.56-2.07,6.82,6.82,0,0,0,1.34,4.77A5.07,5.07,0,0,0,31.31,66.61Z"
     id="path20" /><path
     class="cls-6"
     d="M7.71,52.42a5.06,5.06,0,0,0,0-4.68,6.83,6.83,0,0,0-3.65-3.35,5.75,5.75,0,0,0-.21,5A5.91,5.91,0,0,0,7.71,52.42Z"
     id="path21" /><path
     class="cls-6"
     d="M8.68,60.15a6.85,6.85,0,0,0-4.91.72,5.73,5.73,0,0,0,3.75,3.32,5.87,5.87,0,0,0,4.77-1.07A5.09,5.09,0,0,0,8.68,60.15Z"
     id="path22" /><path
     class="cls-6"
     d="M17.69,66.54a5.1,5.1,0,0,0-4.19-2.09,6.81,6.81,0,0,0-4.62,1.79,5.73,5.73,0,0,0,4.4,2.4A5.88,5.88,0,0,0,17.69,66.54Z"
     id="path23" /><path
     class="cls-6"
     d="M18.56,67.77a6.84,6.84,0,0,0-3.86,3.1,5.68,5.68,0,0,0,4.91,1,5.86,5.86,0,0,0,3.57-3.33A5.07,5.07,0,0,0,18.56,67.77Z"
     id="path24" /><path
     class="cls-6"
     d="M25.51,69.27a6.81,6.81,0,0,0-3.46,3.54,5.74,5.74,0,0,0,5,.37,5.86,5.86,0,0,0,3.13-3.74A5.07,5.07,0,0,0,25.51,69.27Z"
     id="path25" /><path
     class="cls-6"
     d="M9,53.51l-1.33.33C7.7,54,11.5,68.35,34.9,68.56V67.2C12.63,67,9.13,54.06,9,53.51Z"
     id="path26" /><path
     class="cls-7"
     d="M149.23,54.78a5,5,0,0,0-2.51,3.81,5.73,5.73,0,0,0,4.74-.38A5.56,5.56,0,0,0,154,54.05,6.64,6.64,0,0,0,149.23,54.78Z"
     id="path27" /><path
     class="cls-7"
     d="M145.26,53.21a6.62,6.62,0,0,0-1.16-4.68,5.56,5.56,0,0,0-2.86,3.95A5.71,5.71,0,0,0,142.72,57,4.91,4.91,0,0,0,145.26,53.21Z"
     id="path28" /><path
     class="cls-7"
     d="M140.58,59.16a6.7,6.7,0,0,0-.54-4.8,5.61,5.61,0,0,0-3.36,3.54,5.74,5.74,0,0,0,.89,4.68A4.94,4.94,0,0,0,140.58,59.16Z"
     id="path29" /><path
     class="cls-7"
     d="M134.9,61.8a6.68,6.68,0,0,0-.09-4.82,5.6,5.6,0,0,0-3.67,3.22,5.71,5.71,0,0,0,.44,4.73A5,5,0,0,0,134.9,61.8Z"
     id="path30" /><path
     class="cls-7"
     d="M128.56,64.37a6.63,6.63,0,0,0,1.3-4.64,5.58,5.58,0,0,0-4.44,2,5.73,5.73,0,0,0-.94,4.66A4.93,4.93,0,0,0,128.56,64.37Z"
     id="path31" /><path
     class="cls-7"
     d="M151.2,49.65a5.57,5.57,0,0,0-.2-4.88A6.62,6.62,0,0,0,147.45,48a4.9,4.9,0,0,0,0,4.55A5.7,5.7,0,0,0,151.2,49.65Z"
     id="path32" /><path
     class="cls-7"
     d="M146.53,60.12A4.93,4.93,0,0,0,143,63a5.69,5.69,0,0,0,4.64,1,5.56,5.56,0,0,0,3.65-3.23A6.67,6.67,0,0,0,146.53,60.12Z"
     id="path33" /><path
     class="cls-7"
     d="M137.75,66.34a5.76,5.76,0,0,0,4.3,2,5.61,5.61,0,0,0,4.28-2.34,6.66,6.66,0,0,0-4.5-1.75A5,5,0,0,0,137.75,66.34Z"
     id="path34" /><path
     class="cls-7"
     d="M136.9,67.54a4.93,4.93,0,0,0-4.5.71,5.72,5.72,0,0,0,3.48,3.25,5.55,5.55,0,0,0,4.78-.94A6.63,6.63,0,0,0,136.9,67.54Z"
     id="path35" /><path
     class="cls-7"
     d="M130.13,69a5,5,0,0,0-4.55.16,5.7,5.7,0,0,0,3.06,3.64,5.58,5.58,0,0,0,4.87-.35A6.69,6.69,0,0,0,130.13,69Z"
     id="path36" /><path
     class="cls-7"
     d="M147.51,54l-1.3-.32c-.13.54-3.54,13.13-25.23,13.33v1.33C143.78,68.11,147.47,54.11,147.51,54Z"
     id="path37" /><path
     class="cls-7"
     d="M87.28,58.59a5,5,0,0,0-2.51-3.81A6.64,6.64,0,0,0,80,54.05a5.56,5.56,0,0,0,2.54,4.16A5.73,5.73,0,0,0,87.28,58.59Z"
     id="path38" /><path
     class="cls-7"
     d="M91.28,57a5.71,5.71,0,0,0,1.48-4.51,5.56,5.56,0,0,0-2.86-3.95,6.62,6.62,0,0,0-1.16,4.68A4.91,4.91,0,0,0,91.28,57Z"
     id="path39" /><path
     class="cls-7"
     d="M96.43,62.58a5.74,5.74,0,0,0,.89-4.68A5.61,5.61,0,0,0,94,54.36a6.7,6.7,0,0,0-.54,4.8A4.94,4.94,0,0,0,96.43,62.58Z"
     id="path40" /><path
     class="cls-7"
     d="M102.42,64.93a5.71,5.71,0,0,0,.44-4.73A5.6,5.6,0,0,0,99.19,57a6.68,6.68,0,0,0-.09,4.82A5,5,0,0,0,102.42,64.93Z"
     id="path41" /><path
     class="cls-7"
     d="M109.52,66.41a5.73,5.73,0,0,0-.94-4.66,5.58,5.58,0,0,0-4.44-2,6.63,6.63,0,0,0,1.3,4.64A4.93,4.93,0,0,0,109.52,66.41Z"
     id="path42" /><path
     class="cls-7"
     d="M86.53,52.59a4.9,4.9,0,0,0,0-4.55A6.62,6.62,0,0,0,83,44.77a5.57,5.57,0,0,0-.2,4.88A5.7,5.7,0,0,0,86.53,52.59Z"
     id="path43" /><path
     class="cls-7"
     d="M87.47,60.12a6.67,6.67,0,0,0-4.77.7,5.56,5.56,0,0,0,3.65,3.23A5.73,5.73,0,0,0,91,63,4.93,4.93,0,0,0,87.47,60.12Z"
     id="path44" /><path
     class="cls-7"
     d="M96.25,66.34a5,5,0,0,0-4.08-2,6.66,6.66,0,0,0-4.5,1.75A5.61,5.61,0,0,0,92,68.39,5.76,5.76,0,0,0,96.25,66.34Z"
     id="path45" /><path
     class="cls-7"
     d="M97.1,67.54a6.63,6.63,0,0,0-3.76,3,5.55,5.55,0,0,0,4.78.94,5.72,5.72,0,0,0,3.48-3.25A4.93,4.93,0,0,0,97.1,67.54Z"
     id="path46" /><path
     class="cls-7"
     d="M103.87,69a6.69,6.69,0,0,0-3.38,3.45,5.58,5.58,0,0,0,4.87.35,5.7,5.7,0,0,0,3.06-3.64A5,5,0,0,0,103.87,69Z"
     id="path47" /><path
     class="cls-7"
     d="M87.79,53.65l-1.3.32c0,.14,3.73,14.14,26.52,14.34V67C91.33,66.78,87.92,54.19,87.79,53.65Z"
     id="path48" /><path
     class="cls-8"
     d="M226.36,54.9a4.81,4.81,0,0,0-2.44,3.7,5.54,5.54,0,0,0,4.61-.37,5.41,5.41,0,0,0,2.47-4A6.44,6.44,0,0,0,226.36,54.9Z"
     id="path49" /><path
     class="cls-8"
     d="M222.5,53.37a6.51,6.51,0,0,0-1.13-4.56,5.39,5.39,0,0,0-2.78,3.84,5.55,5.55,0,0,0,1.44,4.4A4.79,4.79,0,0,0,222.5,53.37Z"
     id="path50" /><path
     class="cls-8"
     d="M217.94,59.15a6.46,6.46,0,0,0-.52-4.66,5.44,5.44,0,0,0-3.27,3.44,5.59,5.59,0,0,0,.86,4.55A4.81,4.81,0,0,0,217.94,59.15Z"
     id="path51" /><path
     class="cls-8"
     d="M212.41,61.73a6.48,6.48,0,0,0-.08-4.69,5.44,5.44,0,0,0-3.57,3.12,5.58,5.58,0,0,0,.43,4.61A4.77,4.77,0,0,0,212.41,61.73Z"
     id="path52" /><path
     class="cls-8"
     d="M206.25,64.23a6.52,6.52,0,0,0,1.27-4.52,5.43,5.43,0,0,0-4.33,2,5.6,5.6,0,0,0-.91,4.54A4.82,4.82,0,0,0,206.25,64.23Z"
     id="path53" /><path
     class="cls-8"
     d="M228.28,49.9a5.42,5.42,0,0,0-.2-4.74,6.46,6.46,0,0,0-3.45,3.17,4.78,4.78,0,0,0,0,4.44A5.56,5.56,0,0,0,228.28,49.9Z"
     id="path54" /><path
     class="cls-8"
     d="M223.73,60.09a4.82,4.82,0,0,0-3.43,2.82,5.61,5.61,0,0,0,4.52,1,5.42,5.42,0,0,0,3.55-3.15A6.44,6.44,0,0,0,223.73,60.09Z"
     id="path55" /><path
     class="cls-8"
     d="M215.19,66.15a5.56,5.56,0,0,0,4.18,2,5.44,5.44,0,0,0,4.17-2.27,6.51,6.51,0,0,0-4.38-1.7A4.81,4.81,0,0,0,215.19,66.15Z"
     id="path56" /><path
     class="cls-8"
     d="M214.36,67.31A4.78,4.78,0,0,0,210,68a5.55,5.55,0,0,0,3.38,3.16,5.4,5.4,0,0,0,4.65-.91A6.46,6.46,0,0,0,214.36,67.31Z"
     id="path57" /><path
     class="cls-8"
     d="M207.78,68.73a4.81,4.81,0,0,0-4.43.16,5.56,5.56,0,0,0,3,3.54,5.4,5.4,0,0,0,4.73-.35A6.45,6.45,0,0,0,207.78,68.73Z"
     id="path58" /><path
     class="cls-8"
     d="M224.68,54.11l-1.26-.31c-.13.52-3.44,12.77-24.55,13v1.29C221.05,67.86,224.65,54.25,224.68,54.11Z"
     id="path59" /><path
     class="cls-8"
     d="M166.08,58.6a4.81,4.81,0,0,0-2.44-3.7,6.44,6.44,0,0,0-4.64-.72,5.41,5.41,0,0,0,2.47,4A5.54,5.54,0,0,0,166.08,58.6Z"
     id="path60" /><path
     class="cls-8"
     d="M170,57.05a5.55,5.55,0,0,0,1.44-4.4,5.39,5.39,0,0,0-2.78-3.84,6.51,6.51,0,0,0-1.13,4.56A4.79,4.79,0,0,0,170,57.05Z"
     id="path61" /><path
     class="cls-8"
     d="M175,62.48a5.59,5.59,0,0,0,.86-4.55,5.44,5.44,0,0,0-3.27-3.44,6.46,6.46,0,0,0-.52,4.66A4.81,4.81,0,0,0,175,62.48Z"
     id="path62" /><path
     class="cls-8"
     d="M180.81,64.77a5.58,5.58,0,0,0,.43-4.61A5.44,5.44,0,0,0,177.67,57a6.48,6.48,0,0,0-.08,4.69A4.77,4.77,0,0,0,180.81,64.77Z"
     id="path63" /><path
     class="cls-8"
     d="M187.72,66.21a5.6,5.6,0,0,0-.91-4.54,5.43,5.43,0,0,0-4.33-2,6.52,6.52,0,0,0,1.27,4.52A4.82,4.82,0,0,0,187.72,66.21Z"
     id="path64" /><path
     class="cls-8"
     d="M165.35,52.77a4.78,4.78,0,0,0,0-4.44,6.46,6.46,0,0,0-3.45-3.17,5.42,5.42,0,0,0-.2,4.74A5.56,5.56,0,0,0,165.35,52.77Z"
     id="path65" /><path
     class="cls-8"
     d="M166.27,60.09a6.44,6.44,0,0,0-4.64.68,5.42,5.42,0,0,0,3.55,3.15,5.61,5.61,0,0,0,4.52-1A4.82,4.82,0,0,0,166.27,60.09Z"
     id="path66" /><path
     class="cls-8"
     d="M174.81,66.15a4.81,4.81,0,0,0-4-2,6.51,6.51,0,0,0-4.38,1.7,5.44,5.44,0,0,0,4.17,2.27A5.56,5.56,0,0,0,174.81,66.15Z"
     id="path67" /><path
     class="cls-8"
     d="M175.64,67.31A6.46,6.46,0,0,0,172,70.25a5.4,5.4,0,0,0,4.65.91A5.59,5.59,0,0,0,180,68,4.8,4.8,0,0,0,175.64,67.31Z"
     id="path68" /><path
     class="cls-8"
     d="M182.22,68.73a6.45,6.45,0,0,0-3.28,3.35,5.4,5.4,0,0,0,4.73.35,5.56,5.56,0,0,0,3-3.54A4.81,4.81,0,0,0,182.22,68.73Z"
     id="path69" /><path
     class="cls-8"
     d="M166.58,53.8l-1.26.31c0,.14,3.63,13.75,25.8,14V66.77C170,66.57,166.71,54.32,166.58,53.8Z"
     id="path70" /><path
     class="cls-9"
     d="M303.49,55a4.68,4.68,0,0,0-2.38,3.6,5.42,5.42,0,0,0,4.49-.36,5.27,5.27,0,0,0,2.4-3.94A6.27,6.27,0,0,0,303.49,55Z"
     id="path71" /><path
     class="cls-9"
     d="M299.73,53.52a6.31,6.31,0,0,0-1.09-4.43,5.28,5.28,0,0,0-2.71,3.74,5.42,5.42,0,0,0,1.4,4.27A4.65,4.65,0,0,0,299.73,53.52Z"
     id="path72" /><path
     class="cls-9"
     d="M295.3,59.15a6.32,6.32,0,0,0-.5-4.54A5.3,5.3,0,0,0,291.62,58a5.42,5.42,0,0,0,.84,4.42A4.67,4.67,0,0,0,295.3,59.15Z"
     id="path73" /><path
     class="cls-9"
     d="M289.93,61.65a6.33,6.33,0,0,0-.08-4.56,5.3,5.3,0,0,0-3.48,3,5.44,5.44,0,0,0,.42,4.48A4.67,4.67,0,0,0,289.93,61.65Z"
     id="path74" /><path
     class="cls-9"
     d="M283.93,64.08a6.25,6.25,0,0,0,1.24-4.39A5.27,5.27,0,0,0,281,61.6a5.39,5.39,0,0,0-.89,4.41A4.68,4.68,0,0,0,283.93,64.08Z"
     id="path75" /><path
     class="cls-9"
     d="M305.36,50.16a5.31,5.31,0,0,0-.2-4.62,6.29,6.29,0,0,0-3.36,3.09,4.66,4.66,0,0,0,0,4.31A5.44,5.44,0,0,0,305.36,50.16Z"
     id="path76" /><path
     class="cls-9"
     d="M300.93,60.06a4.68,4.68,0,0,0-3.33,2.74,5.41,5.41,0,0,0,4.39,1,5.28,5.28,0,0,0,3.46-3.06A6.32,6.32,0,0,0,300.93,60.06Z"
     id="path77" /><path
     class="cls-9"
     d="M292.63,66a5.4,5.4,0,0,0,4.06,1.93,5.26,5.26,0,0,0,4.05-2.21A6.23,6.23,0,0,0,296.49,64,4.66,4.66,0,0,0,292.63,66Z"
     id="path78" /><path
     class="cls-9"
     d="M291.83,67.08a4.65,4.65,0,0,0-4.26.67,5.39,5.39,0,0,0,3.29,3.07,5.24,5.24,0,0,0,4.52-.89A6.29,6.29,0,0,0,291.83,67.08Z"
     id="path79" /><path
     class="cls-9"
     d="M285.42,68.46a4.67,4.67,0,0,0-4.3.15A5.43,5.43,0,0,0,284,72.06a5.28,5.28,0,0,0,4.6-.34A6.24,6.24,0,0,0,285.42,68.46Z"
     id="path80" /><path
     class="cls-9"
     d="M301.86,54.24l-1.23-.3c-.12.51-3.34,12.42-23.87,12.61v1.26C298.33,67.62,301.82,54.38,301.86,54.24Z"
     id="path81" /><path
     class="cls-9"
     d="M244.89,58.61a4.68,4.68,0,0,0-2.38-3.6,6.27,6.27,0,0,0-4.51-.7,5.27,5.27,0,0,0,2.4,3.94A5.42,5.42,0,0,0,244.89,58.61Z"
     id="path82" /><path
     class="cls-9"
     d="M248.67,57.1a5.42,5.42,0,0,0,1.4-4.27,5.28,5.28,0,0,0-2.71-3.74,6.35,6.35,0,0,0-1.1,4.43A4.68,4.68,0,0,0,248.67,57.1Z"
     id="path83" /><path
     class="cls-9"
     d="M253.54,62.38a5.42,5.42,0,0,0,.84-4.42,5.28,5.28,0,0,0-3.18-3.35,6.32,6.32,0,0,0-.5,4.54A4.67,4.67,0,0,0,253.54,62.38Z"
     id="path84" /><path
     class="cls-9"
     d="M259.21,64.61a5.44,5.44,0,0,0,.42-4.48,5.3,5.3,0,0,0-3.48-3,6.33,6.33,0,0,0-.08,4.56A4.67,4.67,0,0,0,259.21,64.61Z"
     id="path85" /><path
     class="cls-9"
     d="M265.92,66A5.39,5.39,0,0,0,265,61.6a5.27,5.27,0,0,0-4.2-1.91,6.25,6.25,0,0,0,1.24,4.39A4.68,4.68,0,0,0,265.92,66Z"
     id="path86" /><path
     class="cls-9"
     d="M244.18,52.94a4.66,4.66,0,0,0,0-4.31,6.29,6.29,0,0,0-3.36-3.09,5.29,5.29,0,0,0-.19,4.62A5.43,5.43,0,0,0,244.18,52.94Z"
     id="path87" /><path
     class="cls-9"
     d="M245.07,60.06a6.32,6.32,0,0,0-4.52.66A5.28,5.28,0,0,0,244,63.78a5.41,5.41,0,0,0,4.39-1A4.68,4.68,0,0,0,245.07,60.06Z"
     id="path88" /><path
     class="cls-9"
     d="M253.37,66A4.66,4.66,0,0,0,249.51,64a6.26,6.26,0,0,0-4.25,1.65,5.26,5.26,0,0,0,4.05,2.21A5.4,5.4,0,0,0,253.37,66Z"
     id="path89" /><path
     class="cls-9"
     d="M254.17,67.08a6.29,6.29,0,0,0-3.55,2.85,5.24,5.24,0,0,0,4.52.89,5.39,5.39,0,0,0,3.29-3.07A4.65,4.65,0,0,0,254.17,67.08Z"
     id="path90" /><path
     class="cls-9"
     d="M260.58,68.46a6.24,6.24,0,0,0-3.19,3.26,5.28,5.28,0,0,0,4.6.34,5.43,5.43,0,0,0,2.89-3.45A4.67,4.67,0,0,0,260.58,68.46Z"
     id="path91" /><path
     class="cls-9"
     d="M245.37,53.94l-1.23.3c0,.14,3.53,13.38,25.08,13.57l0-1.26C248.71,66.36,245.49,54.45,245.37,53.94Z"
     id="path92" /><circle
     class="cls-10"
     cx="429"
     cy="39"
     r="30"
     id="circle92" /><path
     style="fill:#c48a0c;fill-opacity:1"
     d="m 505.63696,76.97005 c -1.13582,-0.103314 -1.98821,-0.233229 -2.87197,-0.437725 -0.33856,-0.07834 -0.80392,-0.179709 -1.03414,-0.225266 -1.06043,-0.209844 -3.05489,-0.903634 -4.16116,-1.447498 -1.25901,-0.61895 -2.40237,-1.402499 -3.43036,-2.350834 -0.87687,-0.808933 -1.27575,-1.295738 -1.98655,-2.42447 -1.03462,-1.642947 -1.761,-2.378006 -4.11192,-4.161001 -0.95743,-0.726145 -1.83479,-1.472664 -2.09852,-1.785571 -0.6804,-0.807273 -0.944,-1.572403 -0.98984,-2.873147 -0.0208,-0.591045 -0.007,-0.823153 0.0825,-1.347432 0.0593,-0.348363 0.11837,-0.661128 0.13138,-0.695033 0.0161,-0.04206 -0.0557,-0.07217 -0.2259,-0.09475 -0.75886,-0.100666 -1.89707,-0.585773 -2.60369,-1.109698 -0.47681,-0.353534 -1.31121,-1.175511 -1.65319,-1.628587 -0.97749,-1.295006 -1.48257,-4.091767 -1.1294,-6.253768 0.36848,-2.255711 2.04343,-4.429376 4.17536,-5.418583 l 0.47397,-0.219919 -0.0267,-2.634583 c -0.0147,-1.449021 -0.0399,-3.354172 -0.0559,-4.233668 -0.0432,-2.366858 0.0414,-3.441095 0.42386,-5.388096 0.34171,-1.739312 0.91044,-3.482408 1.55493,-4.765668 0.12304,-0.244988 0.19463,-0.433517 0.15909,-0.418953 -0.39741,0.162836 -1.08531,0.342828 -1.5705,0.410924 -1.27943,0.179567 -2.51244,-0.117489 -3.46783,-0.835467 -0.45797,-0.344165 -1.1662,-1.007654 -1.49384,-1.399472 -0.61128,-0.731003 -1.39218,-2.009525 -2.00023,-3.274835 -0.39561,-0.823253 -0.58686,-1.331339 -0.82873,-2.201679 -0.14772,-0.531595 -0.15813,-0.620221 -0.15375,-1.308873 0.004,-0.629451 0.0236,-0.809656 0.13258,-1.218776 0.23471,-0.881232 0.70119,-1.791685 1.34355,-2.622299 0.60849,-0.786814 0.7599,-0.959361 1.27686,-1.455111 1.86625,-1.789677 3.57193,-2.628248 5.29752,-2.604445 0.63185,0.0087 0.8571,0.04958 1.59811,0.289925 1.15867,0.375814 2.72264,1.171897 3.76582,1.916854 0.17605,0.125721 0.41324,0.291627 0.52709,0.36868 0.44666,0.302294 1.15127,0.927803 1.42536,1.265355 0.89188,1.098362 1.02553,1.3054 1.28911,1.996961 0.19354,0.50779 0.26027,0.929977 0.26027,1.646638 0,0.610322 -0.12501,1.368687 -0.30269,1.836152 -0.0532,0.13991 -0.0967,0.272284 -0.0967,0.294166 -10e-6,0.02188 0.13848,-0.04003 0.30776,-0.137579 0.59068,-0.340397 1.88951,-0.977889 2.66718,-1.309112 l 0.78358,-0.33374 -0.35774,-0.03525 c -0.23135,-0.0228 -0.4473,-0.08067 -0.61123,-0.163812 -0.36072,-0.182955 -0.45927,-0.416712 -0.7497,-1.778255 -0.17975,-0.842698 -0.23707,-1.215817 -0.23939,-1.558272 -0.003,-0.5028 0.0485,-0.611631 0.3353,-0.703242 0.0847,-0.02707 0.79673,-0.07436 1.58218,-0.10509 0.78545,-0.03073 1.43108,-0.05928 1.43473,-0.06344 0.004,-0.0042 -0.29119,-2.234649 -0.6552,-4.9566415 -0.50913,-3.8071515 -0.66186,-5.0740649 -0.66193,-5.490768 -2.1e-4,-1.4120591 0.56066,-2.2754964 1.65872,-2.55351472 0.56036,-0.14187829 1.38215,-0.22286679 3.91143,-0.38547874 1.29976,-0.0835643 7.36728,-0.0835643 8.66704,0 2.52928,0.16261195 3.35106,0.24360045 3.91143,0.38547874 1.06744,0.27026622 1.65349,1.14778552 1.65305,2.47521402 -1.1e-4,0.3245552 -0.20782,2.0421397 -0.66415,5.4917473 -0.3652,2.7607199 -0.65875,5.0244489 -0.65234,5.0305089 0.006,0.0061 0.65431,0.03616 1.43976,0.06689 1.46066,0.05715 1.6745,0.08605 1.81912,0.24586 0.11381,0.125754 0.15007,0.562194 0.0805,0.969195 -0.11145,0.652238 -0.40702,2.015922 -0.50056,2.309443 -0.16233,0.509379 -0.45813,0.720641 -1.10362,0.788199 -0.25498,0.02669 -0.31907,0.04693 -0.24622,0.07775 1.57335,0.665605 2.29231,1.0066 3.26245,1.547337 0.22345,0.124545 0.40626,0.208523 0.40625,0.186617 -2e-5,-0.02191 -0.0435,-0.154299 -0.0967,-0.294209 -0.17768,-0.467465 -0.3027,-1.22583 -0.3027,-1.836152 0,-0.716661 0.0667,-1.138848 0.26027,-1.646638 0.26358,-0.691561 0.39724,-0.898599 1.28911,-1.996961 0.2741,-0.337552 0.97871,-0.963061 1.42537,-1.265355 0.11385,-0.07705 0.35104,-0.242959 0.52709,-0.36868 1.04317,-0.744957 2.60715,-1.54104 3.76582,-1.916854 0.74101,-0.240345 0.96626,-0.281209 1.59811,-0.289925 1.74422,-0.02406 3.49779,0.847859 5.34676,2.658545 1.53983,1.507946 2.46329,3.097967 2.68672,4.626015 0.16111,1.101832 -0.14785,2.421723 -0.96597,4.126623 -0.44192,0.920915 -0.7505,1.46896 -1.28939,2.289943 -0.51601,0.786135 -0.88198,1.225699 -1.45797,1.751142 -1.11003,1.012631 -1.8455,1.375734 -3.02553,1.493717 -0.50961,0.05095 -0.67139,0.04755 -1.18849,-0.02503 -0.48522,-0.0681 -1.1729,-0.248035 -1.57057,-0.410948 -0.0356,-0.01458 0.0267,0.155317 0.13846,0.377542 1.05671,2.101705 1.8432,5.295557 1.97059,8.002452 0.0595,1.264996 0.0604,2.527825 0.003,3.644097 -0.0253,0.487521 -0.06,1.896814 -0.0772,3.131761 l -0.0312,2.245359 0.55733,0.274501 c 1.82069,0.896743 3.2717,2.544661 3.87605,4.402072 0.29924,0.91967 0.32569,1.124893 0.32275,2.503669 -0.002,1.108166 -0.0155,1.302424 -0.13201,1.94516 -0.17185,0.948423 -0.47059,1.850942 -0.79322,2.396403 -0.30785,0.520484 -1.26983,1.540585 -1.90198,2.016909 -0.7249,0.546209 -1.83882,1.028824 -2.61105,1.131265 -0.13577,0.01801 -0.24679,0.03543 -0.24671,0.03871 8e-5,0.0033 0.0454,0.238648 0.10075,0.523035 0.24408,1.254528 0.14802,2.595144 -0.24924,3.478498 -0.37416,0.831997 -0.99298,1.449684 -2.90482,2.899509 -2.20936,1.675447 -2.87121,2.352019 -3.92395,4.011255 -0.65994,1.040134 -1.02338,1.495099 -1.77625,2.223542 -1.47306,1.425287 -3.11926,2.443112 -5.18285,3.204506 -1.16285,0.429049 -1.99305,0.677822 -2.83156,0.848487 -0.32502,0.06615 -0.78878,0.166737 -1.03059,0.223523 -0.72096,0.169313 -1.56823,0.291542 -2.73924,0.39517 -1.29629,0.114714 -1.34565,0.114655 -2.6408,-0.0032 z"
     id="path93" /></svg>
